<svg xmlns="http://www.w3.org/2000/svg" xmlns:xlink="http://www.w3.org/1999/xlink" width="1366" zoomAndPan="magnify" viewBox="0 0 1024.5 576" height="768" preserveAspectRatio="xMidYMid meet" version="1.0"><defs><g/><clipPath id="4849c2af47"><path d="M 323 102 L 398.773438 102 L 398.773438 158 L 323 158 Z M 323 102 " clip-rule="nonzero"/></clipPath><clipPath id="e6a3fb5a29"><path d="M 146 413 L 209 413 L 209 548.375 L 146 548.375 Z M 146 413 " clip-rule="nonzero"/></clipPath><clipPath id="f960b4133d"><rect x="0" width="607" y="0" height="165"/></clipPath><clipPath id="7a2706f14f"><rect x="0" width="485" y="0" height="165"/></clipPath></defs><path fill="#004aad" d="M 304.296875 246.484375 C 322.769531 245.5625 343.113281 238.050781 353.695312 222.214844 C 357.6875 216.242188 359.578125 208.964844 359.933594 201.859375 C 360.472656 191.167969 355.683594 181.011719 352.679688 171.011719 C 349.953125 161.921875 350.035156 153.738281 355.316406 145.6875 C 360.015625 138.53125 367.847656 133.546875 375.105469 129.351562 C 382.179688 125.265625 375.925781 114.222656 368.828125 118.324219 C 353.792969 127.011719 340.269531 138.773438 338.09375 156.925781 C 335.84375 175.714844 352.082031 192.085938 345.328125 210.910156 C 341.730469 220.9375 331.078125 227.058594 322.054688 230.132812 C 317.847656 231.566406 313.488281 232.566406 309.101562 233.277344 C 308.347656 233.398438 307.589844 233.503906 306.832031 233.601562 C 304.988281 233.847656 308.113281 233.484375 306.113281 233.675781 C 305.597656 233.726562 305.078125 233.769531 304.558594 233.796875 C 296.421875 234.199219 296.128906 246.890625 304.296875 246.484375 Z M 304.296875 246.484375 " fill-opacity="1" fill-rule="nonzero"/><path fill="#113c70" d="M 304.296875 248.597656 C 323.890625 247.472656 344.035156 239.945312 355.523438 223.28125 C 361.953125 213.949219 363.167969 201.621094 361 190.769531 C 358.550781 178.523438 350.707031 166.773438 353.832031 153.9375 C 355.292969 147.929688 359.566406 143.113281 364.136719 139.195312 C 368.425781 135.511719 373.925781 133.414062 378.097656 129.691406 C 383.140625 125.195312 379.203125 117.042969 373.605469 115.492188 C 369.925781 114.472656 366.40625 117.253906 363.515625 119.066406 C 359.199219 121.769531 355.121094 124.859375 351.351562 128.277344 C 344.179688 134.78125 338.898438 143.113281 336.691406 152.566406 C 332.578125 170.175781 345.085938 185.066406 344.851562 202.285156 C 344.714844 212.511719 337.984375 219.8125 329.527344 224.578125 C 325.242188 226.992188 320.542969 228.53125 315.804688 229.761719 C 313.414062 230.382812 310.976562 230.824219 308.542969 231.234375 C 307.503906 231.410156 305.542969 231.25 304.777344 232.191406 C 303.761719 233.4375 304.226562 236.023438 306.269531 235.800781 C 306.441406 235.785156 306.609375 235.765625 306.777344 235.742188 C 309.464844 235.390625 309.535156 231.792969 306.777344 231.511719 C 294.960938 230.300781 292.144531 248.492188 304.296875 248.597656 C 307.027344 248.621094 307.023438 244.390625 304.296875 244.367188 C 301.257812 244.34375 300 242.058594 300.601562 239.253906 C 301.195312 236.480469 304.226562 235.476562 306.777344 235.738281 C 306.777344 234.328125 306.777344 232.917969 306.777344 231.507812 C 306.609375 231.53125 306.441406 231.554688 306.269531 231.570312 C 306.769531 232.773438 307.269531 233.976562 307.765625 235.179688 C 306.820312 236.339844 309.164062 235.386719 309.664062 235.308594 C 311.128906 235.089844 312.582031 234.792969 314.035156 234.5 C 316.945312 233.910156 319.796875 233.09375 322.617188 232.167969 C 327.28125 230.636719 331.742188 228.417969 335.800781 225.667969 C 343.914062 220.167969 348.554688 212.050781 349.082031 202.28125 C 349.617188 192.296875 344.96875 182.675781 342.152344 173.339844 C 338.84375 162.386719 339.667969 151.785156 345.511719 141.84375 C 350.886719 132.691406 359.878906 126.117188 368.824219 120.773438 C 371.035156 119.449219 372.898438 119.035156 374.859375 120.976562 C 376.414062 122.515625 376.464844 125.078125 375.105469 126.699219 C 373.566406 128.539062 370.277344 129.738281 368.253906 131.023438 C 365.777344 132.59375 363.421875 134.347656 361.144531 136.199219 C 352.605469 143.132812 347.886719 152.988281 349.035156 164.003906 C 350.34375 176.535156 357.636719 187.519531 357.859375 200.332031 C 358.359375 228.792969 328.832031 242.953125 304.296875 244.363281 C 301.585938 244.523438 301.570312 248.753906 304.296875 248.597656 Z M 304.296875 248.597656 " fill-opacity="1" fill-rule="nonzero"/><path fill="#113c70" d="M 331.1875 226.0625 C 328.171875 227.769531 325.027344 229.121094 322.054688 230.132812 C 317.847656 231.566406 313.488281 232.566406 309.101562 233.273438 C 308.347656 233.398438 307.589844 233.5 306.832031 233.601562 C 306.746094 233.613281 306.679688 233.621094 306.617188 233.628906 C 306.503906 233.640625 306.347656 233.652344 306.113281 233.675781 C 305.597656 233.726562 305.078125 233.769531 304.558594 233.796875 C 296.421875 234.203125 296.128906 246.890625 304.296875 246.484375 C 314.480469 245.976562 325.226562 243.460938 334.597656 238.660156 C 333.734375 234.390625 332.589844 230.195312 331.1875 226.0625 Z M 331.1875 226.0625 " fill-opacity="1" fill-rule="nonzero"/><path fill="#004aad" d="M 387.324219 112.347656 C 390.851562 101.800781 391.261719 90.773438 377.902344 94.164062 C 375.476562 84.597656 364.230469 91.546875 354.40625 104.109375 L 354.058594 104.621094 C 353.792969 104.535156 353.511719 104.460938 353.214844 104.394531 C 343.15625 102.582031 337.140625 112.355469 331.625 118.117188 C 325.296875 127.578125 323.25 133.042969 330.050781 142.660156 C 336.851562 152.277344 347.414062 156.289062 359.855469 154.878906 C 372.292969 153.46875 386.007812 143.222656 391.980469 133.390625 C 398.125 123.277344 398.191406 104.558594 387.324219 112.347656 Z M 387.324219 112.347656 " fill-opacity="1" fill-rule="nonzero"/><path fill="#113c70" d="M 355.902344 105.605469 C 359.679688 100.863281 363.835938 96.222656 369.117188 93.125 C 370.589844 92.257812 372.730469 91.296875 374.402344 92.144531 C 376.304688 93.105469 376.09375 96.359375 375.804688 98.046875 C 374.355469 106.445312 368.113281 115.015625 362.761719 121.433594 C 361.03125 123.515625 364.003906 126.523438 365.753906 124.425781 C 369.519531 119.90625 372.804688 114.976562 375.628906 109.820312 C 378.039062 105.429688 381.105469 99.449219 380.070312 94.253906 C 379.117188 89.453125 375.65625 86.941406 370.851562 87.875 C 363.554688 89.292969 357.214844 97.214844 352.910156 102.617188 C 351.230469 104.722656 354.199219 107.738281 355.902344 105.605469 Z M 355.902344 105.605469 " fill-opacity="1" fill-rule="nonzero"/><path fill="#113c70" d="M 378.464844 96.203125 C 381.410156 95.511719 385.546875 94.882812 386.847656 98.402344 C 388.078125 101.730469 386.988281 105.84375 386.109375 109.113281 C 384.558594 114.855469 381.878906 123.144531 377.347656 127.335938 C 375.339844 129.191406 378.339844 132.171875 380.335938 130.324219 C 382.785156 128.0625 384.351562 124.578125 385.785156 121.640625 C 388.089844 116.925781 389.984375 111.921875 391 106.761719 C 391.769531 102.847656 392.117188 98.03125 389.574219 94.65625 C 386.667969 90.804688 381.554688 91.136719 377.339844 92.125 C 374.6875 92.75 375.8125 96.824219 378.464844 96.203125 Z M 378.464844 96.203125 " fill-opacity="1" fill-rule="nonzero"/><g clip-path="url(#4849c2af47)"><path fill="#113c70" d="M 388.386719 114.179688 C 389.867188 113.183594 391.96875 111.636719 393.199219 113.648438 C 394.265625 115.394531 394.074219 117.957031 393.984375 119.898438 C 393.6875 126.140625 390.941406 131.894531 387.027344 136.648438 C 377.144531 148.65625 361.007812 156.128906 345.605469 151.652344 C 338 149.441406 331.539062 143.136719 328.671875 135.824219 C 325.761719 128.398438 331.992188 121.015625 336.515625 115.800781 C 340.808594 110.851562 346.308594 104.6875 353.609375 106.695312 C 359.636719 108.355469 351.175781 118.023438 348.824219 119.511719 C 346.527344 120.96875 348.644531 124.628906 350.957031 123.164062 C 355.933594 120.015625 360.980469 113.25 359.433594 107.058594 C 357.417969 98.972656 345.421875 102.378906 340.914062 105.578125 C 333.898438 110.554688 327.304688 119.003906 324.46875 127.078125 C 321.378906 135.867188 328.050781 145.527344 334.757812 150.652344 C 351.941406 163.769531 374.683594 155.613281 388.347656 141.503906 C 394.140625 135.523438 397.535156 128.191406 398.210938 119.898438 C 398.59375 115.222656 397.222656 107.664062 390.96875 108.472656 C 389.214844 108.699219 387.695312 109.554688 386.25 110.527344 C 384 112.039062 386.117188 115.707031 388.386719 114.179688 Z M 388.386719 114.179688 " fill-opacity="1" fill-rule="nonzero"/></g><path fill="#113c70" d="M 343.191406 119.515625 C 350.140625 125.742188 356.910156 135.339844 352.46875 144.890625 C 351.324219 147.347656 354.96875 149.496094 356.121094 147.027344 C 361.433594 135.605469 354.769531 124.21875 346.183594 116.527344 C 344.15625 114.714844 341.15625 117.695312 343.191406 119.515625 Z M 343.191406 119.515625 " fill-opacity="1" fill-rule="nonzero"/><path fill="#004aad" d="M 169.34375 522.085938 L 196.023438 415.773438 L 183.214844 415.773438 L 178.894531 417.253906 L 148.195312 546.164062 L 206.144531 546.164062 C 206.144531 546.164062 200.875 521.9375 169.34375 522.085938 Z M 169.34375 522.085938 " fill-opacity="1" fill-rule="nonzero"/><g clip-path="url(#e6a3fb5a29)"><path fill="#113c70" d="M 171.382812 522.648438 C 180.277344 487.210938 189.167969 451.773438 198.0625 416.335938 C 198.394531 415.007812 197.421875 413.660156 196.023438 413.660156 C 191.46875 413.660156 178.097656 411.472656 176.585938 417.820312 C 174.878906 424.996094 173.167969 432.167969 171.460938 439.34375 C 165.359375 464.972656 159.253906 490.601562 153.152344 516.230469 C 150.820312 526.019531 148.488281 535.8125 146.15625 545.601562 C 145.839844 546.933594 146.785156 548.277344 148.195312 548.277344 C 167.511719 548.277344 186.828125 548.277344 206.144531 548.277344 C 207.570312 548.277344 208.480469 546.933594 208.183594 545.601562 C 204.28125 528.160156 185.546875 520.070312 169.34375 519.972656 C 166.617188 519.953125 166.617188 524.183594 169.34375 524.199219 C 183.722656 524.289062 200.617188 531.140625 204.105469 546.726562 C 204.785156 545.832031 205.460938 544.941406 206.144531 544.050781 C 186.828125 544.050781 167.511719 544.050781 148.195312 544.050781 C 148.875 544.941406 149.554688 545.832031 150.234375 546.726562 C 159.824219 506.449219 169.417969 466.175781 179.007812 425.898438 C 179.648438 423.203125 180.289062 420.507812 180.933594 417.8125 C 180.441406 418.304688 179.949219 418.796875 179.457031 419.289062 C 182.5625 418.226562 183.113281 417.890625 186.050781 417.890625 C 189.375 417.890625 192.695312 417.890625 196.019531 417.890625 C 195.339844 416.996094 194.660156 416.105469 193.980469 415.214844 C 185.089844 450.648438 176.199219 486.085938 167.304688 521.523438 C 166.640625 524.167969 170.722656 525.292969 171.382812 522.648438 Z M 171.382812 522.648438 " fill-opacity="1" fill-rule="nonzero"/></g><path fill="#004aad" d="M 251.1875 403.996094 C 251.1875 403.996094 285.246094 406.40625 287.570312 433.558594 C 288.878906 448.886719 273.171875 480.96875 273.171875 480.96875 L 329.558594 489.636719 C 329.558594 489.636719 324.84375 466.949219 293.671875 462.195312 C 293.671875 462.195312 300.953125 443.222656 298.308594 426.039062 C 294.597656 401.894531 265.863281 399.960938 265.863281 399.960938 Z M 251.1875 403.996094 " fill-opacity="1" fill-rule="nonzero"/><path fill="#113c70" d="M 251.1875 406.109375 C 264.847656 407.125 280.1875 414.441406 284.460938 428.285156 C 287.613281 438.503906 283.304688 450.011719 279.871094 459.609375 C 277.40625 466.507812 274.558594 473.316406 271.34375 479.902344 C 270.808594 481 271.164062 482.785156 272.609375 483.007812 C 291.40625 485.898438 310.199219 488.785156 328.996094 491.675781 C 330.609375 491.925781 331.960938 490.769531 331.597656 489.074219 C 327.984375 472.21875 309.695312 462.675781 294.234375 460.160156 C 294.726562 461.027344 295.21875 461.894531 295.710938 462.761719 C 302.964844 443.628906 305.660156 417.074219 286.214844 404.519531 C 280.449219 400.796875 273.519531 398.742188 266.742188 397.933594 C 264.953125 397.71875 263.199219 398.5 261.496094 398.96875 C 257.871094 399.964844 254.246094 400.960938 250.625 401.957031 C 248 402.679688 249.113281 406.761719 251.75 406.035156 C 254.601562 405.25 257.453125 404.46875 260.304688 403.683594 C 261.902344 403.242188 263.503906 402.804688 265.101562 402.363281 C 265.523438 402.25 265.945312 402.132812 266.367188 402.019531 C 265.753906 402.1875 265.792969 402.070312 266.160156 402.101562 C 271.648438 402.597656 277.183594 404.40625 282.03125 406.972656 C 301.832031 417.453125 298.386719 443.828125 291.632812 461.636719 C 291.253906 462.632812 292.042969 464.066406 293.109375 464.238281 C 307.15625 466.523438 324.203125 474.734375 327.519531 490.199219 C 328.386719 489.335938 329.253906 488.464844 330.121094 487.601562 C 311.324219 484.710938 292.527344 481.820312 273.734375 478.933594 C 274.152344 479.96875 274.574219 481.003906 274.996094 482.039062 C 278.523438 474.816406 281.589844 467.335938 284.296875 459.773438 C 288.191406 448.878906 291.898438 436.789062 287.960938 425.402344 C 282.859375 410.648438 265.835938 402.96875 251.1875 401.882812 C 248.46875 401.679688 248.488281 405.910156 251.1875 406.109375 Z M 251.1875 406.109375 " fill-opacity="1" fill-rule="nonzero"/><path fill="#113c70" d="M 176.484375 458.046875 C 179.652344 457.246094 182.828125 456.460938 186.007812 455.6875 L 196.023438 415.773438 L 183.214844 415.773438 L 178.894531 417.253906 L 168.703125 460.054688 C 171.292969 459.375 173.886719 458.703125 176.484375 458.046875 Z M 176.484375 458.046875 " fill-opacity="1" fill-rule="nonzero"/><path fill="#113c70" d="M 287.136719 430.417969 C 289.921875 429.570312 292.707031 428.730469 295.507812 427.929688 C 296.488281 427.648438 297.476562 427.398438 298.460938 427.140625 C 298.414062 426.773438 298.367188 426.40625 298.3125 426.039062 C 294.597656 401.894531 265.863281 399.960938 265.863281 399.960938 L 251.1875 403.996094 C 251.1875 403.996094 282.566406 406.222656 287.136719 430.417969 Z M 287.136719 430.417969 " fill-opacity="1" fill-rule="nonzero"/><path fill="#004aad" d="M 333.195312 343.003906 C 336.746094 369.175781 337.265625 384.230469 296.792969 399.117188 C 282.285156 404.453125 169.410156 420.179688 154.597656 420 C 139.789062 419.820312 125.582031 417.554688 117.261719 397.773438 C 108.941406 377.988281 36.453125 147.34375 33.5625 123.558594 C 29.464844 89.828125 56.285156 71.472656 72.734375 67.300781 L 202.933594 34.273438 C 228.996094 27.664062 252.222656 35.832031 262.554688 56.394531 C 272.886719 76.957031 330.03125 319.699219 333.195312 343.003906 Z M 333.195312 343.003906 " fill-opacity="1" fill-rule="nonzero"/><path fill="#113c70" d="M 331.15625 343.566406 C 332.867188 356.261719 334.675781 370.066406 325.402344 380.371094 C 319.628906 386.789062 311.394531 390.789062 303.609375 394.167969 C 298.894531 396.21875 294.253906 397.8125 289.265625 398.933594 C 262.539062 404.929688 235.070312 408.320312 207.957031 412 C 194.710938 413.800781 181.445312 415.519531 168.144531 416.886719 C 157.660156 417.96875 146.898438 418.863281 136.734375 415.316406 C 125.566406 411.421875 120.4375 400.800781 116.773438 390.433594 C 114.074219 382.808594 111.539062 375.121094 109.011719 367.4375 C 91.367188 313.867188 74.648438 259.976562 58.441406 205.957031 C 51.777344 183.75 45.097656 161.515625 39.234375 139.078125 C 37.816406 133.644531 36.078125 127.191406 35.53125 122.25 C 33.464844 103.496094 42.652344 86.441406 58.125 76.199219 C 64.472656 72.003906 71.335938 69.835938 78.582031 67.996094 C 87.914062 65.628906 97.242188 63.265625 106.570312 60.898438 C 132.046875 54.4375 157.523438 47.972656 183 41.511719 C 189.609375 39.835938 196.222656 38.160156 202.832031 36.484375 C 219.21875 32.328125 237.457031 33.324219 250.84375 44.648438 C 258.050781 50.75 261.316406 58.042969 264.027344 66.5 C 266.664062 74.742188 268.972656 83.089844 271.257812 91.433594 C 286.226562 146.125 299.265625 201.382812 312.132812 256.597656 C 316.53125 275.460938 320.863281 294.339844 325.015625 313.257812 C 327.214844 323.285156 329.75 333.382812 331.15625 343.566406 C 331.527344 346.257812 335.601562 345.105469 335.234375 342.441406 C 333.179688 327.574219 329.277344 312.816406 326 298.195312 C 319.945312 271.191406 313.636719 244.25 307.214844 217.335938 C 300.289062 188.289062 293.210938 159.28125 285.84375 130.34375 C 280.507812 109.386719 275.230469 88.359375 268.832031 67.695312 C 266.824219 61.199219 264.757812 55.089844 260.839844 49.441406 C 249.910156 33.695312 230.363281 28.328125 212.074219 30.425781 C 205.191406 31.21875 198.425781 33.238281 191.722656 34.9375 C 180.929688 37.675781 170.136719 40.410156 159.347656 43.148438 C 134.664062 49.410156 109.980469 55.667969 85.296875 61.929688 C 80.269531 63.203125 75.175781 64.328125 70.203125 65.8125 C 56.359375 69.941406 44.039062 80.042969 37.050781 92.625 C 26.515625 111.59375 32.632812 131.234375 37.914062 150.46875 C 44.667969 175.046875 52.027344 199.460938 59.421875 223.851562 C 75.1875 275.839844 91.230469 327.785156 108.496094 379.292969 C 110.460938 385.15625 112.398438 391.042969 114.613281 396.8125 C 117 403.03125 120.390625 408.800781 125.324219 413.328125 C 131.1875 418.703125 138.882812 420.878906 146.613281 421.71875 C 155.960938 422.734375 165.355469 421.457031 174.644531 420.417969 C 188.621094 418.855469 202.570312 416.996094 216.5 415.0625 C 242.207031 411.492188 268.578125 408.554688 293.789062 402.207031 C 300.277344 400.574219 306.550781 397.660156 312.507812 394.671875 C 319.199219 391.320312 325.71875 386.996094 330.347656 381.027344 C 338.265625 370.816406 337.214844 357.777344 335.667969 345.703125 C 335.527344 344.613281 335.378906 343.527344 335.230469 342.441406 C 334.871094 339.746094 330.796875 340.898438 331.15625 343.566406 Z M 331.15625 343.566406 " fill-opacity="1" fill-rule="nonzero"/><path fill="#004aad" d="M 323.386719 360.113281 C 324.066406 383.617188 315.210938 391.011719 301.15625 397.449219 C 287.105469 403.886719 159.601562 437.292969 144.792969 437.109375 C 129.980469 436.929688 115.773438 434.664062 107.453125 414.882812 C 99.132812 395.101562 35.582031 147.433594 33.5625 123.558594 C 31.757812 102.226562 46.480469 88.578125 62.929688 84.40625 L 205.332031 48.289062 C 221.78125 44.117188 239.714844 45.894531 250.046875 66.457031 C 260.382812 87.015625 322.707031 336.605469 323.386719 360.113281 Z M 323.386719 360.113281 " fill-opacity="1" fill-rule="nonzero"/><path fill="#113c70" d="M 321.273438 360.113281 C 321.460938 369.160156 320.617188 378.78125 314.523438 385.957031 C 310.65625 390.511719 304.53125 393.875 299.292969 395.957031 C 291.152344 399.203125 282.523438 401.421875 274.113281 403.835938 C 245.675781 411.996094 217 419.417969 188.226562 426.300781 C 176.875 429.015625 165.488281 431.699219 154 433.796875 C 143.382812 435.734375 131.75 435.714844 122.164062 430.125 C 113.382812 425.003906 109.597656 415.421875 106.742188 406.230469 C 104.328125 398.464844 102.128906 390.628906 99.941406 382.796875 C 84.871094 328.878906 71.082031 274.578125 57.621094 220.238281 C 51.699219 196.324219 45.835938 172.394531 40.496094 148.34375 C 38.953125 141.394531 37.410156 134.433594 36.21875 127.414062 C 33.863281 113.578125 38.941406 99.761719 51.304688 91.675781 C 57.492188 87.628906 64.636719 86.160156 71.667969 84.375 C 81.492188 81.882812 91.316406 79.390625 101.140625 76.898438 C 126.996094 70.339844 152.851562 63.78125 178.707031 57.226562 C 186.730469 55.191406 194.75 53.15625 202.773438 51.121094 C 213.214844 48.472656 224.058594 46.96875 234.0625 52.085938 C 243.433594 56.882812 248.039062 66.007812 251.132812 75.222656 C 253.738281 82.988281 256.015625 90.871094 258.273438 98.742188 C 273.707031 152.574219 287.167969 207.027344 300.238281 261.472656 C 305.375 282.871094 310.40625 304.296875 315.042969 325.808594 C 317.433594 336.914062 320.886719 348.742188 321.273438 360.113281 C 321.363281 362.832031 325.59375 362.839844 325.5 360.113281 C 325.328125 354.972656 324.167969 349.789062 323.222656 344.753906 C 321.480469 335.492188 319.488281 326.273438 317.460938 317.070312 C 311.628906 290.570312 305.304688 264.171875 298.855469 237.8125 C 286.257812 186.316406 273.710938 134.601562 258.304688 83.859375 C 256.570312 78.152344 254.871094 72.367188 252.546875 66.867188 C 246.449219 52.441406 233.015625 44.089844 217.554688 44.367188 C 210.542969 44.496094 203.746094 46.507812 197 48.222656 C 187.285156 50.6875 177.566406 53.148438 167.851562 55.613281 C 141.976562 62.179688 116.097656 68.742188 90.21875 75.304688 C 73.144531 79.636719 52.023438 81.980469 39.90625 96.050781 C 26.207031 111.964844 32.628906 132.441406 36.660156 150.5625 C 42.058594 174.8125 47.988281 198.945312 53.964844 223.054688 C 67.386719 277.21875 81.152344 331.339844 96.1875 385.082031 C 100.527344 400.59375 103.789062 421.191406 117.113281 431.75 C 134.9375 445.867188 161.679688 436.828125 181.265625 432.285156 C 210.28125 425.550781 239.144531 418.042969 267.828125 410.011719 C 277.703125 407.25 287.617188 404.5 297.316406 401.167969 C 307.644531 397.621094 317.777344 391.6875 322.316406 381.3125 C 325.210938 374.691406 325.648438 367.242188 325.5 360.109375 C 325.445312 357.390625 321.214844 357.382812 321.273438 360.113281 Z M 321.273438 360.113281 " fill-opacity="1" fill-rule="nonzero"/><path fill="#a6a6a6" d="M 297.835938 344.292969 L 122.402344 388.792969 L 59.125 139.355469 L 234.5625 94.851562 Z M 297.835938 344.292969 " fill-opacity="1" fill-rule="nonzero"/><path fill="#113c70" d="M 297.265625 342.265625 C 257.449219 352.363281 217.632812 362.464844 177.820312 372.5625 C 159.15625 377.296875 140.492188 382.03125 121.828125 386.761719 C 122.695312 387.257812 123.5625 387.75 124.429688 388.242188 C 115.847656 354.40625 107.265625 320.570312 98.683594 286.734375 C 87.078125 240.980469 75.472656 195.226562 63.867188 149.472656 C 62.964844 145.917969 62.0625 142.359375 61.160156 138.800781 C 60.667969 139.667969 60.175781 140.535156 59.683594 141.402344 C 99.5 131.304688 139.316406 121.203125 179.128906 111.105469 C 197.792969 106.371094 216.457031 101.636719 235.121094 96.90625 C 234.253906 96.414062 233.386719 95.917969 232.519531 95.425781 C 241.101562 129.261719 249.683594 163.097656 258.265625 196.933594 C 269.871094 242.6875 281.476562 288.441406 293.078125 334.195312 C 293.984375 337.75 294.882812 341.308594 295.789062 344.867188 C 296.457031 347.507812 300.535156 346.386719 299.863281 343.742188 C 291.285156 309.90625 282.703125 276.070312 274.117188 242.234375 C 262.515625 196.484375 250.910156 150.730469 239.304688 104.976562 C 238.402344 101.417969 237.5 97.859375 236.597656 94.304688 C 236.308594 93.167969 235.09375 92.546875 233.996094 92.824219 C 194.179688 102.925781 154.363281 113.023438 114.550781 123.121094 C 95.886719 127.855469 77.222656 132.589844 58.558594 137.324219 C 57.425781 137.609375 56.804688 138.824219 57.082031 139.921875 C 65.664062 173.757812 74.246094 207.59375 82.828125 241.429688 C 94.433594 287.183594 106.039062 332.9375 117.644531 378.691406 C 118.546875 382.246094 119.449219 385.804688 120.351562 389.363281 C 120.636719 390.496094 121.851562 391.121094 122.953125 390.839844 C 162.765625 380.742188 202.582031 370.644531 242.398438 360.542969 C 261.0625 355.8125 279.726562 351.078125 298.386719 346.34375 C 301.03125 345.675781 299.910156 341.597656 297.265625 342.265625 Z M 297.265625 342.265625 " fill-opacity="1" fill-rule="nonzero"/><path fill="#ffffff" d="M 96.210938 201.269531 C 92.054688 184.886719 87.898438 168.503906 83.746094 152.121094 C 83.253906 152.988281 82.761719 153.855469 82.269531 154.722656 C 92.921875 152.019531 103.578125 149.316406 114.230469 146.617188 C 116.875 145.945312 115.753906 141.867188 113.109375 142.539062 C 102.453125 145.238281 91.796875 147.941406 81.144531 150.644531 C 80.011719 150.929688 79.386719 152.144531 79.664062 153.246094 C 83.820312 169.628906 87.976562 186.011719 92.132812 202.394531 C 92.800781 205.035156 96.882812 203.914062 96.210938 201.269531 Z M 96.210938 201.269531 " fill-opacity="1" fill-rule="nonzero"/><path fill="#ffffff" d="M 231.085938 391.839844 C 231.085938 392.796875 230.992188 393.742188 230.804688 394.679688 C 230.621094 395.617188 230.34375 396.53125 229.976562 397.414062 C 229.609375 398.296875 229.164062 399.136719 228.632812 399.929688 C 228.101562 400.726562 227.496094 401.460938 226.820312 402.136719 C 226.144531 402.8125 225.410156 403.417969 224.613281 403.949219 C 223.816406 404.480469 222.980469 404.929688 222.09375 405.292969 C 221.210938 405.660156 220.300781 405.9375 219.363281 406.125 C 218.425781 406.308594 217.476562 406.402344 216.523438 406.402344 C 215.566406 406.402344 214.617188 406.308594 213.679688 406.125 C 212.742188 405.9375 211.832031 405.660156 210.949219 405.292969 C 210.066406 404.929688 209.226562 404.480469 208.429688 403.949219 C 207.636719 403.417969 206.898438 402.8125 206.222656 402.136719 C 205.546875 401.460938 204.945312 400.726562 204.414062 399.929688 C 203.882812 399.136719 203.433594 398.296875 203.066406 397.414062 C 202.699219 396.53125 202.425781 395.617188 202.238281 394.679688 C 202.050781 393.742188 201.957031 392.796875 201.957031 391.839844 C 201.957031 390.882812 202.050781 389.9375 202.238281 389 C 202.425781 388.058594 202.699219 387.148438 203.066406 386.265625 C 203.433594 385.382812 203.882812 384.542969 204.414062 383.75 C 204.945312 382.953125 205.546875 382.21875 206.222656 381.542969 C 206.898438 380.863281 207.636719 380.261719 208.429688 379.730469 C 209.226562 379.199219 210.066406 378.75 210.949219 378.382812 C 211.832031 378.019531 212.742188 377.742188 213.679688 377.554688 C 214.617188 377.367188 215.566406 377.277344 216.523438 377.277344 C 217.476562 377.277344 218.425781 377.367188 219.363281 377.554688 C 220.300781 377.742188 221.210938 378.019531 222.09375 378.382812 C 222.980469 378.75 223.816406 379.199219 224.613281 379.730469 C 225.410156 380.261719 226.144531 380.867188 226.820312 381.542969 C 227.496094 382.21875 228.101562 382.953125 228.632812 383.75 C 229.164062 384.542969 229.609375 385.382812 229.976562 386.265625 C 230.34375 387.148438 230.621094 388.058594 230.804688 389 C 230.992188 389.9375 231.085938 390.882812 231.085938 391.839844 Z M 231.085938 391.839844 " fill-opacity="1" fill-rule="nonzero"/><path fill="#113c70" d="M 228.597656 388.820312 C 230.046875 395.683594 226.238281 401.925781 219.539062 403.917969 C 212.824219 405.914062 206.3125 401.144531 204.445312 394.859375 C 202.449219 388.140625 207.21875 381.628906 213.503906 379.761719 C 220.21875 377.765625 226.730469 382.539062 228.597656 388.820312 C 229.375 391.429688 233.457031 390.320312 232.675781 387.699219 C 230.007812 378.714844 221.519531 373.753906 212.378906 375.683594 C 203.21875 377.617188 198.554688 387.402344 200.367188 395.984375 C 202.300781 405.140625 212.085938 409.804688 220.664062 407.996094 C 229.820312 406.0625 234.488281 396.277344 232.675781 387.699219 C 232.113281 385.03125 228.039062 386.160156 228.597656 388.820312 Z M 228.597656 388.820312 " fill-opacity="1" fill-rule="nonzero"/><path fill="#113c70" d="M 108.03125 104.167969 C 108.03125 104.609375 107.988281 105.042969 107.902344 105.472656 C 107.820312 105.902344 107.691406 106.320312 107.523438 106.726562 C 107.355469 107.128906 107.152344 107.515625 106.90625 107.878906 C 106.664062 108.246094 106.386719 108.582031 106.078125 108.890625 C 105.765625 109.203125 105.429688 109.476562 105.066406 109.722656 C 104.699219 109.964844 104.316406 110.171875 103.910156 110.339844 C 103.503906 110.507812 103.085938 110.632812 102.65625 110.71875 C 102.226562 110.804688 101.792969 110.847656 101.355469 110.847656 C 100.917969 110.847656 100.480469 110.804688 100.050781 110.71875 C 99.621094 110.632812 99.203125 110.507812 98.800781 110.339844 C 98.394531 110.171875 98.007812 109.964844 97.644531 109.722656 C 97.28125 109.476562 96.941406 109.203125 96.632812 108.890625 C 96.324219 108.582031 96.046875 108.246094 95.804688 107.878906 C 95.558594 107.515625 95.351562 107.128906 95.1875 106.726562 C 95.019531 106.320312 94.890625 105.902344 94.804688 105.472656 C 94.71875 105.042969 94.675781 104.609375 94.675781 104.167969 C 94.675781 103.730469 94.71875 103.296875 94.804688 102.867188 C 94.890625 102.4375 95.019531 102.019531 95.1875 101.613281 C 95.351562 101.210938 95.558594 100.824219 95.804688 100.460938 C 96.046875 100.09375 96.324219 99.757812 96.632812 99.449219 C 96.941406 99.136719 97.28125 98.859375 97.644531 98.617188 C 98.007812 98.375 98.394531 98.167969 98.800781 98 C 99.203125 97.832031 99.621094 97.707031 100.050781 97.621094 C 100.480469 97.535156 100.917969 97.492188 101.355469 97.492188 C 101.792969 97.492188 102.226562 97.535156 102.65625 97.621094 C 103.085938 97.707031 103.503906 97.832031 103.910156 98 C 104.316406 98.167969 104.699219 98.375 105.066406 98.617188 C 105.429688 98.859375 105.765625 99.136719 106.078125 99.449219 C 106.386719 99.757812 106.664062 100.09375 106.90625 100.460938 C 107.152344 100.824219 107.355469 101.210938 107.523438 101.613281 C 107.691406 102.019531 107.820312 102.4375 107.902344 102.867188 C 107.988281 103.296875 108.03125 103.730469 108.03125 104.167969 Z M 108.03125 104.167969 " fill-opacity="1" fill-rule="nonzero"/><path fill="#113c70" d="M 179.019531 77.582031 C 177.277344 78.023438 125.511719 91.152344 123.773438 91.59375 C 120.199219 92.503906 118.035156 96.132812 118.941406 99.710938 C 119.847656 103.285156 123.480469 105.445312 127.058594 104.539062 C 128.796875 104.097656 180.5625 90.96875 182.300781 90.527344 C 185.875 89.621094 188.039062 85.988281 187.132812 82.414062 C 186.226562 78.839844 182.59375 76.675781 179.019531 77.582031 Z M 179.019531 77.582031 " fill-opacity="1" fill-rule="nonzero"/><path fill="#ffffff" d="M 157.152344 243.507812 C 160.53125 256.832031 153.992188 269.988281 134.621094 274.898438 C 115.246094 279.8125 103.230469 271.367188 99.851562 258.039062 L 95.679688 241.601562 L 152.984375 227.066406 Z M 157.152344 243.507812 " fill-opacity="1" fill-rule="nonzero"/><path fill="#113c70" d="M 155.113281 244.070312 C 160.289062 265.996094 133.800781 278.710938 115.359375 272.824219 C 102.03125 268.570312 100.644531 252.578125 97.71875 241.039062 C 97.226562 241.90625 96.734375 242.773438 96.242188 243.640625 C 115.34375 238.796875 134.445312 233.953125 153.546875 229.105469 C 152.679688 228.613281 151.8125 228.121094 150.945312 227.628906 C 152.332031 233.109375 153.722656 238.589844 155.113281 244.070312 C 155.78125 246.710938 159.863281 245.589844 159.191406 242.945312 C 157.800781 237.464844 156.410156 231.984375 155.019531 226.503906 C 154.734375 225.371094 153.519531 224.75 152.421875 225.027344 C 133.320312 229.875 114.21875 234.71875 95.117188 239.5625 C 93.984375 239.847656 93.363281 241.0625 93.640625 242.164062 C 95.03125 247.640625 96.421875 253.121094 97.808594 258.601562 C 100.273438 268.304688 107.4375 275.4375 117.183594 277.714844 C 128.625 280.382812 142.378906 276.371094 151.316406 269.035156 C 159.101562 262.644531 161.433594 252.457031 159.191406 242.945312 C 158.566406 240.292969 154.488281 241.417969 155.113281 244.070312 Z M 155.113281 244.070312 " fill-opacity="1" fill-rule="nonzero"/><path fill="#113c70" d="M 156.707031 247.808594 C 155.4375 253.519531 150.710938 258.40625 141.871094 260.648438 C 129.277344 263.835938 121.472656 258.347656 119.273438 249.6875 L 115.929688 236.507812 L 153.171875 227.0625 L 155.820312 237.523438 L 139.359375 241.703125 Z M 156.707031 247.808594 " fill-opacity="1" fill-rule="nonzero"/><path fill="#ffffff" d="M 255.320312 218.609375 C 258.699219 231.933594 252.160156 245.089844 232.789062 250 C 213.414062 254.914062 201.398438 246.46875 198.015625 233.140625 L 193.847656 216.703125 L 251.148438 202.167969 Z M 255.320312 218.609375 " fill-opacity="1" fill-rule="nonzero"/><path fill="#113c70" d="M 253.28125 219.171875 C 258.457031 241.097656 231.96875 253.808594 213.523438 247.925781 C 200.199219 243.671875 198.8125 227.679688 195.886719 216.140625 C 195.394531 217.007812 194.902344 217.875 194.410156 218.742188 C 213.507812 213.894531 232.609375 209.050781 251.710938 204.207031 C 250.84375 203.714844 249.976562 203.222656 249.109375 202.730469 C 250.5 208.210938 251.890625 213.691406 253.28125 219.171875 C 253.949219 221.8125 258.027344 220.691406 257.359375 218.046875 C 255.96875 212.566406 254.578125 207.085938 253.1875 201.605469 C 252.902344 200.472656 251.6875 199.851562 250.585938 200.128906 C 231.488281 204.972656 212.386719 209.816406 193.285156 214.664062 C 192.152344 214.949219 191.527344 216.164062 191.808594 217.265625 C 193.199219 222.742188 194.589844 228.222656 195.976562 233.703125 C 198.4375 243.40625 205.605469 250.539062 215.351562 252.8125 C 226.792969 255.484375 240.546875 251.472656 249.484375 244.132812 C 257.269531 237.742188 259.601562 227.554688 257.359375 218.046875 C 256.734375 215.394531 252.65625 216.519531 253.28125 219.171875 Z M 253.28125 219.171875 " fill-opacity="1" fill-rule="nonzero"/><path fill="#113c70" d="M 254.875 222.910156 C 253.613281 228.617188 248.886719 233.5 240.039062 235.75 C 227.453125 238.9375 219.636719 233.449219 217.445312 224.796875 L 214.097656 211.609375 L 251.339844 202.171875 L 253.996094 212.632812 L 237.527344 216.804688 Z M 254.875 222.910156 " fill-opacity="1" fill-rule="nonzero"/><path fill="#004aad" d="M 160.746094 278.675781 C 176.292969 289.667969 203.140625 284.957031 211.941406 267.625 C 215.652344 260.3125 203.847656 255.640625 200.175781 262.871094 C 195.085938 272.898438 176.464844 274.257812 168.328125 268.503906 C 161.652344 263.78125 154.054688 273.941406 160.746094 278.675781 Z M 160.746094 278.675781 " fill-opacity="1" fill-rule="nonzero"/><path fill="#113c70" d="M 159.679688 280.5 C 171.050781 288.242188 186.011719 288.289062 198.347656 282.898438 C 206.003906 279.554688 223.878906 263.558594 209.03125 257.621094 C 206.960938 256.792969 204.039062 256.980469 202.097656 258.058594 C 199.40625 259.558594 198.582031 262.046875 196.652344 264.253906 C 191.902344 269.6875 182.753906 270.507812 176.117188 269.332031 C 170.261719 268.296875 165.867188 262.800781 159.910156 266.753906 C 155.113281 269.9375 154.902344 276.628906 159.25 280.171875 C 161.34375 281.878906 164.355469 278.902344 162.242188 277.179688 C 159.867188 275.246094 159.769531 272.816406 161.84375 270.609375 C 164.273438 268.019531 167.011719 270.347656 169.371094 271.554688 C 173.332031 273.578125 178.011719 274.089844 182.390625 273.984375 C 187.019531 273.871094 191.632812 272.640625 195.667969 270.382812 C 197.398438 269.414062 198.929688 268.0625 200.226562 266.578125 C 201.929688 264.625 202.453125 262.164062 205.21875 261.429688 C 207.265625 260.886719 209.78125 262.230469 210.457031 264.1875 C 211.285156 266.589844 207.839844 270.332031 206.445312 271.9375 C 202.871094 276.046875 197.949219 278.792969 192.855469 280.535156 C 182.664062 284.023438 170.773438 282.945312 161.8125 276.847656 C 159.550781 275.308594 157.4375 278.976562 159.679688 280.5 Z M 159.679688 280.5 " fill-opacity="1" fill-rule="nonzero"/><path fill="#113c70" d="M 100.890625 228.199219 C 115.230469 219.992188 129.570312 211.789062 143.910156 203.585938 C 151.007812 199.523438 144.621094 188.558594 137.507812 192.628906 C 123.167969 200.835938 108.828125 209.039062 94.484375 217.242188 C 87.386719 221.304688 93.777344 232.265625 100.890625 228.199219 Z M 100.890625 228.199219 " fill-opacity="1" fill-rule="nonzero"/><path fill="#113c70" d="M 197.542969 203.9375 C 212.386719 200.171875 227.230469 196.410156 242.070312 192.644531 C 249.996094 190.632812 246.632812 178.398438 238.699219 180.410156 C 223.855469 184.175781 209.011719 187.9375 194.167969 191.703125 C 186.242188 193.714844 189.605469 205.953125 197.542969 203.9375 Z M 197.542969 203.9375 " fill-opacity="1" fill-rule="nonzero"/><path fill="#004aad" d="M 112.261719 368.539062 C 128.949219 370.609375 146.324219 370.117188 162.488281 366.308594 C 190.339844 359.75 213.816406 341.59375 234.792969 323.019531 C 240.921875 317.597656 232.007812 308.5625 225.894531 313.976562 C 206.710938 330.960938 185.871094 346.902344 160.699219 353.675781 C 148.296875 357.015625 135.207031 357.304688 122.457031 356.585938 C 117.898438 356.328125 113.351562 355.863281 108.832031 355.25 " fill-opacity="1" fill-rule="nonzero"/><path fill="#113c70" d="M 112.261719 370.652344 C 137.0625 373.605469 162.113281 371.105469 184.941406 360.625 C 195.707031 355.683594 205.671875 349.105469 215.121094 342.011719 C 219.4375 338.769531 223.628906 335.363281 227.761719 331.898438 C 231.058594 329.132812 237.117188 325.621094 238.503906 321.316406 C 240.625 314.738281 234.136719 309.132812 227.828125 310.515625 C 223.75 311.414062 219.898438 316.433594 216.847656 319.015625 C 211.898438 323.207031 206.800781 327.21875 201.539062 331.015625 C 191.6875 338.121094 181.078125 344.222656 169.714844 348.558594 C 157.09375 353.371094 143.898438 354.925781 130.460938 354.769531 C 123.222656 354.6875 116.003906 354.082031 108.832031 353.136719 C 106.132812 352.78125 106.167969 357.015625 108.832031 357.367188 C 132.527344 360.488281 155.847656 359.429688 177.9375 349.714844 C 188.359375 345.132812 198.003906 338.90625 207.128906 332.136719 C 211.480469 328.90625 215.691406 325.488281 219.839844 322.007812 C 223.167969 319.210938 228.492188 311.875 233.140625 315.640625 C 237.851562 319.460938 230.664062 323.855469 228.003906 326.152344 C 223.480469 330.058594 218.859375 333.851562 214.125 337.496094 C 205.105469 344.433594 195.542969 350.664062 185.359375 355.75 C 162.742188 367.042969 137.109375 369.382812 112.265625 366.425781 C 109.558594 366.101562 109.589844 370.335938 112.261719 370.652344 Z M 112.261719 370.652344 " fill-opacity="1" fill-rule="nonzero"/><path fill="#004aad" d="M 267.886719 296.917969 L 266.480469 297.003906 C 271.863281 285.269531 276.175781 267.765625 259.800781 271.921875 C 258.078125 265.136719 249.789062 267.480469 245.285156 271.03125 C 244.890625 271.34375 243.519531 273.011719 241.621094 275.441406 C 241.292969 275.289062 240.9375 275.152344 240.527344 275.0625 C 230.46875 273.25 219.039062 290.113281 213.519531 295.875 C 207.191406 305.335938 205.144531 310.796875 211.945312 320.417969 C 218.75 330.035156 229.308594 334.046875 241.75 332.636719 C 254.191406 331.226562 268.789062 321.125 276.144531 312.277344 C 283.707031 304.25 280.589844 291.953125 267.886719 296.917969 Z M 267.886719 296.917969 " fill-opacity="1" fill-rule="nonzero"/><path fill="#113c70" d="M 244.488281 275.46875 C 244.476562 272.765625 249.664062 270.707031 251.683594 270.078125 C 256.125 268.695312 258.445312 271.488281 257.699219 275.804688 C 256.25 284.203125 250.007812 292.773438 244.660156 299.191406 C 242.925781 301.269531 245.902344 304.28125 247.648438 302.183594 C 251.644531 297.386719 255.117188 292.132812 258.035156 286.617188 C 260.480469 281.988281 263.714844 275.289062 261.371094 270.035156 C 259.128906 265.011719 253.636719 264.824219 249.058594 266.511719 C 245.4375 267.847656 240.242188 271.054688 240.261719 275.46875 C 240.273438 278.191406 244.503906 278.195312 244.488281 275.46875 Z M 244.488281 275.46875 " fill-opacity="1" fill-rule="nonzero"/><path fill="#113c70" d="M 260.363281 273.957031 C 263.304688 273.265625 267.445312 272.640625 268.746094 276.160156 C 269.976562 279.484375 268.886719 283.597656 268.003906 286.867188 C 266.457031 292.609375 263.773438 300.898438 259.246094 305.089844 C 257.238281 306.945312 260.234375 309.929688 262.234375 308.082031 C 264.683594 305.816406 266.25 302.332031 267.683594 299.394531 C 269.988281 294.679688 271.882812 289.675781 272.898438 284.519531 C 273.667969 280.601562 274.015625 275.785156 271.46875 272.410156 C 268.566406 268.558594 263.453125 268.890625 259.238281 269.882812 C 256.582031 270.503906 257.710938 274.582031 260.363281 273.957031 Z M 260.363281 273.957031 " fill-opacity="1" fill-rule="nonzero"/><path fill="#113c70" d="M 268.449219 298.957031 C 271.132812 298 275.046875 296.851562 277.136719 299.578125 C 279.007812 302.019531 277.914062 305.628906 276.65625 308.042969 C 272.929688 315.199219 264.183594 320.894531 257.460938 324.800781 C 241.503906 334.074219 220.90625 332.953125 211.382812 315.457031 C 207.058594 307.507812 213.144531 299.710938 218.136719 293.820312 C 222.691406 288.441406 227.230469 282.695312 233.28125 278.925781 C 235.140625 277.765625 239.070312 275.914062 241.136719 277.601562 C 242.800781 278.960938 240.96875 282.988281 240.347656 284.433594 C 238.390625 288.976562 235 294.5625 230.722656 297.269531 C 228.421875 298.722656 230.542969 302.382812 232.855469 300.921875 C 238.746094 297.195312 253.890625 276.589844 241.089844 273.023438 C 233.824219 271 226.34375 278.460938 221.910156 283.085938 C 216.046875 289.199219 210.035156 295.863281 206.75 303.742188 C 202.953125 312.839844 209.425781 322.421875 216.226562 328.078125 C 223.625 334.230469 233.609375 335.84375 242.921875 334.59375 C 252.945312 333.246094 262.191406 327.535156 269.921875 321.3125 C 275.761719 316.613281 282.882812 310.03125 282.261719 301.824219 C 281.652344 293.839844 273.542969 292.65625 267.324219 294.882812 C 264.773438 295.792969 265.875 299.878906 268.449219 298.957031 Z M 268.449219 298.957031 " fill-opacity="1" fill-rule="nonzero"/><path fill="#113c70" d="M 236.382812 311.210938 C 242.496094 308.164062 256.488281 304.097656 261.1875 311.28125 C 262.675781 313.550781 266.335938 311.433594 264.839844 309.144531 C 258.574219 299.570312 242.691406 303.351562 234.25 307.558594 C 231.808594 308.777344 233.949219 312.425781 236.382812 311.210938 Z M 236.382812 311.210938 " fill-opacity="1" fill-rule="nonzero"/><path fill="#004aad" d="M 101.78125 364.742188 C 103.035156 365.078125 103.433594 366.171875 103.203125 367.15625 C 102.535156 367.03125 101.867188 366.902344 101.195312 366.773438 C 100.480469 366.632812 99.847656 366.410156 99.308594 366.101562 C 99.683594 365.210938 100.582031 364.511719 101.78125 364.742188 Z M 101.78125 364.742188 " fill-opacity="1" fill-rule="nonzero"/><path fill="#004aad" d="M 234.515625 317.585938 C 231.863281 310.945312 225.894531 316.832031 222.835938 319.457031 C 216.929688 324.527344 210.789062 329.523438 204.382812 334.164062 C 205.910156 335.671875 207.652344 336.953125 209.425781 338.148438 C 210.105469 338.605469 210.804688 339.03125 211.496094 339.46875 C 215.417969 336.558594 219.246094 333.523438 223 330.394531 C 225.703125 328.125 228.398438 325.839844 231.050781 323.5 C 232.734375 322.023438 235.582031 320.246094 234.515625 317.585938 Z M 234.515625 317.585938 " fill-opacity="1" fill-rule="nonzero"/><path fill="#004aad" d="M 347.328125 148.617188 C 345.875 147.890625 344.625 146.992188 343.402344 146.054688 C 340.714844 152.058594 339.574219 158.53125 340.355469 165.171875 C 343.234375 166.273438 346.402344 166.886719 349.457031 167.085938 C 349.1875 165.585938 348.988281 164.074219 348.890625 162.539062 C 348.617188 158.144531 349.316406 153.929688 350.820312 150.03125 C 349.628906 149.671875 348.46875 149.1875 347.328125 148.617188 Z M 347.328125 148.617188 " fill-opacity="1" fill-rule="nonzero"/><g transform="matrix(1, 0, 0, 1, 362, 197)"><g clip-path="url(#f960b4133d)"><g fill="#004aad" fill-opacity="1"><g transform="translate(3.008219, 124.962691)"><g><path d="M 84.46875 -122.109375 C 94.539062 -122.109375 101.800781 -118.945312 106.25 -112.625 C 110.59375 -106.695312 112.765625 -97.753906 112.765625 -85.796875 L 112.765625 -86.6875 C 112.765625 -74.9375 110.59375 -66 106.25 -59.875 C 101.800781 -53.644531 94.539062 -50.53125 84.46875 -50.53125 L 33.78125 -50.390625 L 33.78125 -5.03125 C 33.78125 -2.757812 33.238281 -1.328125 32.15625 -0.734375 C 31.070312 -0.148438 30.234375 0.140625 29.640625 0.140625 L 16 0.140625 C 15.40625 0.140625 14.566406 -0.148438 13.484375 -0.734375 C 12.398438 -1.328125 11.859375 -2.757812 11.859375 -5.03125 L 11.859375 -67.28125 C 11.859375 -69.550781 12.398438 -70.957031 13.484375 -71.5 C 14.566406 -72.039062 15.40625 -72.3125 16 -72.3125 L 80.609375 -72.3125 C 84.367188 -72.3125 86.988281 -73.398438 88.46875 -75.578125 C 90.050781 -77.742188 90.84375 -81.300781 90.84375 -86.25 C 90.84375 -91.1875 90.050781 -94.742188 88.46875 -96.921875 C 86.988281 -99.085938 84.367188 -100.171875 80.609375 -100.171875 L 16 -100.171875 C 15.40625 -100.171875 14.566406 -100.441406 13.484375 -100.984375 C 12.398438 -101.535156 11.859375 -102.945312 11.859375 -105.21875 L 11.859375 -116.921875 C 11.859375 -119.285156 12.398438 -120.738281 13.484375 -121.28125 C 14.566406 -121.832031 15.40625 -122.109375 16 -122.109375 Z M 84.46875 -122.109375 "/></g></g></g><g fill="#004aad" fill-opacity="1"><g transform="translate(121.705544, 124.962691)"><g><path d="M 107.578125 -122.109375 C 108.273438 -122.109375 109.164062 -121.8125 110.25 -121.21875 C 111.332031 -120.625 111.875 -119.191406 111.875 -116.921875 L 111.875 -5.03125 C 111.875 -2.757812 111.332031 -1.328125 110.25 -0.734375 C 109.164062 -0.148438 108.273438 0.140625 107.578125 0.140625 L 93.953125 0.140625 C 93.359375 0.140625 92.539062 -0.148438 91.5 -0.734375 C 90.46875 -1.328125 89.953125 -2.757812 89.953125 -5.03125 L 89.953125 -50.6875 L 33.78125 -50.6875 L 33.78125 -5.03125 C 33.78125 -2.757812 33.257812 -1.328125 32.21875 -0.734375 C 31.1875 -0.148438 30.328125 0.140625 29.640625 0.140625 L 16.15625 0.140625 C 15.457031 0.140625 14.566406 -0.148438 13.484375 -0.734375 C 12.398438 -1.328125 11.859375 -2.757812 11.859375 -5.03125 L 11.859375 -116.921875 C 11.859375 -119.191406 12.398438 -120.625 13.484375 -121.21875 C 14.566406 -121.8125 15.457031 -122.109375 16.15625 -122.109375 L 29.640625 -122.109375 C 30.328125 -122.109375 31.1875 -121.8125 32.21875 -121.21875 C 33.257812 -120.625 33.78125 -119.191406 33.78125 -116.921875 L 33.78125 -72.609375 L 89.953125 -72.609375 L 89.953125 -116.921875 C 89.953125 -119.191406 90.46875 -120.625 91.5 -121.21875 C 92.539062 -121.8125 93.359375 -122.109375 93.953125 -122.109375 Z M 107.578125 -122.109375 "/></g></g></g><g fill="#004aad" fill-opacity="1"><g transform="translate(239.513718, 124.962691)"><g><path d="M 112.765625 -111.28125 C 115.628906 -107.726562 117.753906 -102.890625 119.140625 -96.765625 C 119.734375 -93.898438 120.203125 -90.6875 120.546875 -87.125 C 120.890625 -83.570312 121.0625 -79.769531 121.0625 -75.71875 L 121.0625 -46.375 C 121.0625 -42.226562 120.890625 -38.375 120.546875 -34.8125 C 120.203125 -31.257812 119.734375 -28.050781 119.140625 -25.1875 C 117.753906 -19.164062 115.628906 -14.273438 112.765625 -10.515625 C 109.703125 -6.660156 105.851562 -3.945312 101.21875 -2.375 C 96.46875 -0.695312 90.882812 0.140625 84.46875 0.140625 L 48.3125 0.140625 C 41.789062 0.140625 36.257812 -0.695312 31.71875 -2.375 C 27.070312 -3.945312 23.21875 -6.710938 20.15625 -10.671875 C 17.1875 -14.523438 15.0625 -19.363281 13.78125 -25.1875 C 13.09375 -28.050781 12.597656 -31.257812 12.296875 -34.8125 C 12.003906 -38.375 11.859375 -42.226562 11.859375 -46.375 L 11.859375 -75.71875 C 11.859375 -84.21875 12.5 -91.234375 13.78125 -96.765625 C 15.0625 -102.597656 17.1875 -107.4375 20.15625 -111.28125 C 23.21875 -115.039062 27.070312 -117.8125 31.71875 -119.59375 C 36.457031 -121.269531 41.988281 -122.109375 48.3125 -122.109375 L 84.46875 -122.109375 C 90.882812 -122.109375 96.46875 -121.269531 101.21875 -119.59375 C 105.851562 -117.8125 109.703125 -115.039062 112.765625 -111.28125 Z M 98.984375 -78.25 C 98.984375 -80.414062 98.929688 -82.410156 98.828125 -84.234375 C 98.734375 -86.066406 98.539062 -87.722656 98.25 -89.203125 C 97.851562 -91.972656 97.015625 -94.195312 95.734375 -95.875 C 94.742188 -97.257812 93.257812 -98.347656 91.28125 -99.140625 C 90.289062 -99.429688 89.175781 -99.675781 87.9375 -99.875 C 86.707031 -100.070312 85.300781 -100.171875 83.71875 -100.171875 L 49.046875 -100.171875 C 47.460938 -100.171875 46.050781 -100.070312 44.8125 -99.875 C 43.582031 -99.675781 42.476562 -99.429688 41.5 -99.140625 C 39.519531 -98.347656 38.035156 -97.257812 37.046875 -95.875 C 36.453125 -95.082031 35.957031 -94.117188 35.5625 -92.984375 C 35.164062 -91.847656 34.820312 -90.585938 34.53125 -89.203125 C 34.332031 -87.722656 34.15625 -86.066406 34 -84.234375 C 33.851562 -82.410156 33.78125 -80.414062 33.78125 -78.25 L 33.78125 -43.71875 C 33.78125 -41.539062 33.851562 -39.535156 34 -37.703125 C 34.15625 -35.878906 34.332031 -34.226562 34.53125 -32.75 C 34.820312 -31.46875 35.164062 -30.257812 35.5625 -29.125 C 35.957031 -27.988281 36.453125 -27.023438 37.046875 -26.234375 C 38.035156 -24.648438 39.519531 -23.5625 41.5 -22.96875 C 43.269531 -22.28125 45.785156 -21.9375 49.046875 -21.9375 L 83.71875 -21.9375 C 86.976562 -21.9375 89.5 -22.28125 91.28125 -22.96875 C 93.257812 -23.5625 94.742188 -24.648438 95.734375 -26.234375 C 96.910156 -27.710938 97.75 -29.882812 98.25 -32.75 C 98.539062 -34.226562 98.734375 -35.878906 98.828125 -37.703125 C 98.929688 -39.535156 98.984375 -41.539062 98.984375 -43.71875 Z M 98.984375 -78.25 "/></g></g></g><g fill="#004aad" fill-opacity="1"><g transform="translate(366.509626, 124.962691)"><g><path d="M 116.765625 -122.109375 C 117.359375 -122.109375 118.195312 -121.832031 119.28125 -121.28125 C 120.375 -120.738281 120.921875 -119.285156 120.921875 -116.921875 L 120.921875 -18.96875 C 120.921875 -11.757812 119.882812 -6.820312 117.8125 -4.15625 C 115.738281 -1.289062 112.523438 0.140625 108.171875 0.140625 L 97.359375 0.140625 C 95.378906 0.140625 93.703125 -0.00390625 92.328125 -0.296875 C 91.628906 -0.492188 90.929688 -0.710938 90.234375 -0.953125 C 89.546875 -1.203125 88.90625 -1.523438 88.3125 -1.921875 C 87.132812 -2.617188 86.050781 -3.707031 85.0625 -5.1875 C 84.5625 -5.875 84.015625 -6.660156 83.421875 -7.546875 C 82.835938 -8.441406 82.25 -9.484375 81.65625 -10.671875 L 34.671875 -93.953125 C 34.578125 -94.148438 34.476562 -94.269531 34.375 -94.3125 C 34.28125 -94.363281 34.234375 -94.390625 34.234375 -94.390625 L 33.484375 -94.390625 C 33.484375 -94.390625 33.484375 -94.363281 33.484375 -94.3125 C 33.484375 -94.269531 33.484375 -94.195312 33.484375 -94.09375 L 33.484375 -5.03125 C 33.484375 -2.757812 32.960938 -1.328125 31.921875 -0.734375 C 30.890625 -0.148438 30.03125 0.140625 29.34375 0.140625 L 16.15625 0.140625 C 15.457031 0.140625 14.566406 -0.148438 13.484375 -0.734375 C 12.398438 -1.328125 11.859375 -2.757812 11.859375 -5.03125 L 11.859375 -102.984375 C 11.859375 -110.203125 12.894531 -115.191406 14.96875 -117.953125 C 17.144531 -120.722656 20.351562 -122.109375 24.59375 -122.109375 L 35.71875 -122.109375 C 36.695312 -122.109375 37.628906 -122.082031 38.515625 -122.03125 C 39.410156 -121.976562 40.207031 -121.90625 40.90625 -121.8125 C 42.476562 -121.507812 43.859375 -120.914062 45.046875 -120.03125 C 46.035156 -119.34375 47.070312 -118.207031 48.15625 -116.625 C 48.65625 -115.9375 49.175781 -115.144531 49.71875 -114.25 C 50.257812 -113.363281 50.828125 -112.375 51.421875 -111.28125 L 98.25 -28 C 98.34375 -27.707031 98.488281 -27.5625 98.6875 -27.5625 L 99.4375 -27.5625 C 99.4375 -27.664062 99.4375 -27.71875 99.4375 -27.71875 C 99.4375 -27.71875 99.4375 -27.765625 99.4375 -27.859375 L 99.4375 -116.921875 C 99.4375 -119.285156 99.953125 -120.738281 100.984375 -121.28125 C 102.023438 -121.832031 102.890625 -122.109375 103.578125 -122.109375 Z M 116.765625 -122.109375 "/></g></g></g><g fill="#004aad" fill-opacity="1"><g transform="translate(493.357319, 124.962691)"><g><path d="M 100.921875 -26.53125 C 101.609375 -26.53125 102.492188 -26.253906 103.578125 -25.703125 C 104.671875 -25.160156 105.21875 -23.753906 105.21875 -21.484375 L 105.21875 -5.1875 C 105.21875 -2.914062 104.671875 -1.503906 103.578125 -0.953125 C 102.492188 -0.410156 101.609375 -0.140625 100.921875 -0.140625 L 48.3125 -0.140625 C 45.050781 -0.140625 42.035156 -0.335938 39.265625 -0.734375 C 36.503906 -1.128906 33.988281 -1.773438 31.71875 -2.671875 C 26.875 -4.347656 23.019531 -7.0625 20.15625 -10.8125 C 17.1875 -14.664062 15.0625 -19.507812 13.78125 -25.34375 C 13.289062 -27.8125 12.867188 -30.523438 12.515625 -33.484375 C 12.171875 -36.453125 11.953125 -39.664062 11.859375 -43.125 L 11.859375 -43.859375 L 12.15625 -62.53125 C 12.445312 -63.625 12.988281 -64.859375 13.78125 -66.234375 C 15.957031 -70.085938 19.316406 -72.164062 23.859375 -72.46875 L 100.328125 -72.609375 C 100.921875 -72.609375 101.757812 -72.335938 102.84375 -71.796875 C 103.925781 -71.253906 104.46875 -69.847656 104.46875 -67.578125 L 104.46875 -55.859375 C 104.46875 -53.585938 103.925781 -52.15625 102.84375 -51.5625 C 101.757812 -50.976562 100.921875 -50.6875 100.328125 -50.6875 L 34.078125 -50.6875 C 34.078125 -50.6875 34.050781 -50.140625 34 -49.046875 C 33.957031 -47.960938 33.910156 -46.726562 33.859375 -45.34375 C 33.804688 -43.957031 33.78125 -42.722656 33.78125 -41.640625 C 33.78125 -40.554688 33.78125 -40.015625 33.78125 -40.015625 C 33.882812 -39.617188 33.9375 -39.195312 33.9375 -38.75 C 33.9375 -38.300781 33.984375 -37.878906 34.078125 -37.484375 C 34.472656 -34.722656 35.316406 -32.503906 36.609375 -30.828125 C 37.785156 -29.335938 39.265625 -28.25 41.046875 -27.5625 C 42.128906 -27.269531 43.285156 -27.023438 44.515625 -26.828125 C 45.753906 -26.628906 47.164062 -26.53125 48.75 -26.53125 Z M 24.890625 -71.28125 Z M 101.0625 -122.40625 C 101.65625 -122.40625 102.492188 -122.109375 103.578125 -121.515625 C 104.671875 -120.921875 105.21875 -119.488281 105.21875 -117.21875 L 105.21875 -105.515625 C 105.21875 -103.234375 104.671875 -101.796875 103.578125 -101.203125 C 102.492188 -100.617188 101.65625 -100.328125 101.0625 -100.328125 L 15.859375 -100.46875 C 15.265625 -100.46875 14.445312 -100.738281 13.40625 -101.28125 C 12.375 -101.820312 11.859375 -103.234375 11.859375 -105.515625 L 11.859375 -117.0625 C 11.859375 -119.4375 12.375 -120.921875 13.40625 -121.515625 C 14.445312 -122.109375 15.265625 -122.40625 15.859375 -122.40625 Z M 101.0625 -122.40625 "/></g></g></g></g></g><g transform="matrix(1, 0, 0, 1, 373, 370)"><g clip-path="url(#7a2706f14f)"><g fill="#004aad" fill-opacity="1"><g transform="translate(0.666109, 124.711729)"><g><path d="M 98.09375 -122.109375 C 99.875 -122.109375 101.628906 -121.738281 103.359375 -121 C 105.085938 -120.257812 106.519531 -118.875 107.65625 -116.84375 C 108.789062 -114.820312 109.359375 -111.832031 109.359375 -107.875 L 109.359375 -91.4375 C 109.359375 -90.445312 109.332031 -89.601562 109.28125 -88.90625 C 109.238281 -88.21875 109.164062 -87.53125 109.0625 -86.84375 C 108.96875 -86.144531 108.820312 -85.445312 108.625 -84.75 C 108.425781 -84.0625 108.226562 -83.425781 108.03125 -82.84375 C 107.4375 -81.550781 106.695312 -80.460938 105.8125 -79.578125 C 104.820312 -78.585938 103.734375 -77.695312 102.546875 -76.90625 L 33.9375 -27.5625 C 33.832031 -27.5625 33.78125 -27.460938 33.78125 -27.265625 L 33.78125 -22.375 C 33.78125 -22.082031 33.929688 -21.9375 34.234375 -21.9375 L 104.46875 -21.9375 C 105.0625 -21.9375 105.898438 -21.660156 106.984375 -21.109375 C 108.078125 -20.566406 108.625 -19.160156 108.625 -16.890625 L 108.625 -5.03125 C 108.625 -2.757812 108.078125 -1.351562 106.984375 -0.8125 C 105.898438 -0.269531 105.0625 0 104.46875 0 L 23.125 0 C 19.070312 0 16.15625 -1.234375 14.375 -3.703125 C 12.695312 -5.972656 11.859375 -9.429688 11.859375 -14.078125 L 11.859375 -29.9375 C 11.859375 -31.019531 11.859375 -31.957031 11.859375 -32.75 C 11.859375 -33.539062 11.90625 -34.28125 12 -34.96875 C 12.300781 -36.75 12.648438 -38.132812 13.046875 -39.125 C 13.535156 -40.40625 14.222656 -41.488281 15.109375 -42.375 C 15.898438 -43.269531 16.941406 -44.160156 18.234375 -45.046875 L 87.28125 -94.84375 C 87.382812 -94.84375 87.4375 -94.941406 87.4375 -95.140625 L 87.4375 -99.734375 C 87.4375 -100.023438 87.285156 -100.171875 86.984375 -100.171875 L 16.75 -100.171875 C 16.15625 -100.171875 15.3125 -100.441406 14.21875 -100.984375 C 13.132812 -101.535156 12.59375 -102.945312 12.59375 -105.21875 L 12.59375 -117.0625 C 12.59375 -119.332031 13.132812 -120.738281 14.21875 -121.28125 C 15.3125 -121.832031 16.15625 -122.109375 16.75 -122.109375 Z M 98.09375 -122.109375 "/></g></g></g><g fill="#004aad" fill-opacity="1"><g transform="translate(115.95508, 124.711729)"><g><path d="M 112.765625 -111.28125 C 115.628906 -107.726562 117.753906 -102.890625 119.140625 -96.765625 C 119.734375 -93.898438 120.203125 -90.6875 120.546875 -87.125 C 120.890625 -83.570312 121.0625 -79.769531 121.0625 -75.71875 L 121.0625 -46.375 C 121.0625 -42.226562 120.890625 -38.375 120.546875 -34.8125 C 120.203125 -31.257812 119.734375 -28.050781 119.140625 -25.1875 C 117.753906 -19.164062 115.628906 -14.273438 112.765625 -10.515625 C 109.703125 -6.660156 105.851562 -3.945312 101.21875 -2.375 C 96.46875 -0.695312 90.882812 0.140625 84.46875 0.140625 L 48.3125 0.140625 C 41.789062 0.140625 36.257812 -0.695312 31.71875 -2.375 C 27.070312 -3.945312 23.21875 -6.710938 20.15625 -10.671875 C 17.1875 -14.523438 15.0625 -19.363281 13.78125 -25.1875 C 13.09375 -28.050781 12.597656 -31.257812 12.296875 -34.8125 C 12.003906 -38.375 11.859375 -42.226562 11.859375 -46.375 L 11.859375 -75.71875 C 11.859375 -84.21875 12.5 -91.234375 13.78125 -96.765625 C 15.0625 -102.597656 17.1875 -107.4375 20.15625 -111.28125 C 23.21875 -115.039062 27.070312 -117.8125 31.71875 -119.59375 C 36.457031 -121.269531 41.988281 -122.109375 48.3125 -122.109375 L 84.46875 -122.109375 C 90.882812 -122.109375 96.46875 -121.269531 101.21875 -119.59375 C 105.851562 -117.8125 109.703125 -115.039062 112.765625 -111.28125 Z M 98.984375 -78.25 C 98.984375 -80.414062 98.929688 -82.410156 98.828125 -84.234375 C 98.734375 -86.066406 98.539062 -87.722656 98.25 -89.203125 C 97.851562 -91.972656 97.015625 -94.195312 95.734375 -95.875 C 94.742188 -97.257812 93.257812 -98.347656 91.28125 -99.140625 C 90.289062 -99.429688 89.175781 -99.675781 87.9375 -99.875 C 86.707031 -100.070312 85.300781 -100.171875 83.71875 -100.171875 L 49.046875 -100.171875 C 47.460938 -100.171875 46.050781 -100.070312 44.8125 -99.875 C 43.582031 -99.675781 42.476562 -99.429688 41.5 -99.140625 C 39.519531 -98.347656 38.035156 -97.257812 37.046875 -95.875 C 36.453125 -95.082031 35.957031 -94.117188 35.5625 -92.984375 C 35.164062 -91.847656 34.820312 -90.585938 34.53125 -89.203125 C 34.332031 -87.722656 34.15625 -86.066406 34 -84.234375 C 33.851562 -82.410156 33.78125 -80.414062 33.78125 -78.25 L 33.78125 -43.71875 C 33.78125 -41.539062 33.851562 -39.535156 34 -37.703125 C 34.15625 -35.878906 34.332031 -34.226562 34.53125 -32.75 C 34.820312 -31.46875 35.164062 -30.257812 35.5625 -29.125 C 35.957031 -27.988281 36.453125 -27.023438 37.046875 -26.234375 C 38.035156 -24.648438 39.519531 -23.5625 41.5 -22.96875 C 43.269531 -22.28125 45.785156 -21.9375 49.046875 -21.9375 L 83.71875 -21.9375 C 86.976562 -21.9375 89.5 -22.28125 91.28125 -22.96875 C 93.257812 -23.5625 94.742188 -24.648438 95.734375 -26.234375 C 96.910156 -27.710938 97.75 -29.882812 98.25 -32.75 C 98.539062 -34.226562 98.734375 -35.878906 98.828125 -37.703125 C 98.929688 -39.535156 98.984375 -41.539062 98.984375 -43.71875 Z M 98.984375 -78.25 "/></g></g></g><g fill="#004aad" fill-opacity="1"><g transform="translate(242.950989, 124.711729)"><g><path d="M 116.765625 -122.109375 C 117.359375 -122.109375 118.195312 -121.832031 119.28125 -121.28125 C 120.375 -120.738281 120.921875 -119.285156 120.921875 -116.921875 L 120.921875 -18.96875 C 120.921875 -11.757812 119.882812 -6.820312 117.8125 -4.15625 C 115.738281 -1.289062 112.523438 0.140625 108.171875 0.140625 L 97.359375 0.140625 C 95.378906 0.140625 93.703125 -0.00390625 92.328125 -0.296875 C 91.628906 -0.492188 90.929688 -0.710938 90.234375 -0.953125 C 89.546875 -1.203125 88.90625 -1.523438 88.3125 -1.921875 C 87.132812 -2.617188 86.050781 -3.707031 85.0625 -5.1875 C 84.5625 -5.875 84.015625 -6.660156 83.421875 -7.546875 C 82.835938 -8.441406 82.25 -9.484375 81.65625 -10.671875 L 34.671875 -93.953125 C 34.578125 -94.148438 34.476562 -94.269531 34.375 -94.3125 C 34.28125 -94.363281 34.234375 -94.390625 34.234375 -94.390625 L 33.484375 -94.390625 C 33.484375 -94.390625 33.484375 -94.363281 33.484375 -94.3125 C 33.484375 -94.269531 33.484375 -94.195312 33.484375 -94.09375 L 33.484375 -5.03125 C 33.484375 -2.757812 32.960938 -1.328125 31.921875 -0.734375 C 30.890625 -0.148438 30.03125 0.140625 29.34375 0.140625 L 16.15625 0.140625 C 15.457031 0.140625 14.566406 -0.148438 13.484375 -0.734375 C 12.398438 -1.328125 11.859375 -2.757812 11.859375 -5.03125 L 11.859375 -102.984375 C 11.859375 -110.203125 12.894531 -115.191406 14.96875 -117.953125 C 17.144531 -120.722656 20.351562 -122.109375 24.59375 -122.109375 L 35.71875 -122.109375 C 36.695312 -122.109375 37.628906 -122.082031 38.515625 -122.03125 C 39.410156 -121.976562 40.207031 -121.90625 40.90625 -121.8125 C 42.476562 -121.507812 43.859375 -120.914062 45.046875 -120.03125 C 46.035156 -119.34375 47.070312 -118.207031 48.15625 -116.625 C 48.65625 -115.9375 49.175781 -115.144531 49.71875 -114.25 C 50.257812 -113.363281 50.828125 -112.375 51.421875 -111.28125 L 98.25 -28 C 98.34375 -27.707031 98.488281 -27.5625 98.6875 -27.5625 L 99.4375 -27.5625 C 99.4375 -27.664062 99.4375 -27.71875 99.4375 -27.71875 C 99.4375 -27.71875 99.4375 -27.765625 99.4375 -27.859375 L 99.4375 -116.921875 C 99.4375 -119.285156 99.953125 -120.738281 100.984375 -121.28125 C 102.023438 -121.832031 102.890625 -122.109375 103.578125 -122.109375 Z M 116.765625 -122.109375 "/></g></g></g><g fill="#004aad" fill-opacity="1"><g transform="translate(369.798681, 124.711729)"><g><path d="M 100.921875 -26.53125 C 101.609375 -26.53125 102.492188 -26.253906 103.578125 -25.703125 C 104.671875 -25.160156 105.21875 -23.753906 105.21875 -21.484375 L 105.21875 -5.1875 C 105.21875 -2.914062 104.671875 -1.503906 103.578125 -0.953125 C 102.492188 -0.410156 101.609375 -0.140625 100.921875 -0.140625 L 48.3125 -0.140625 C 45.050781 -0.140625 42.035156 -0.335938 39.265625 -0.734375 C 36.503906 -1.128906 33.988281 -1.773438 31.71875 -2.671875 C 26.875 -4.347656 23.019531 -7.0625 20.15625 -10.8125 C 17.1875 -14.664062 15.0625 -19.507812 13.78125 -25.34375 C 13.289062 -27.8125 12.867188 -30.523438 12.515625 -33.484375 C 12.171875 -36.453125 11.953125 -39.664062 11.859375 -43.125 L 11.859375 -43.859375 L 12.15625 -62.53125 C 12.445312 -63.625 12.988281 -64.859375 13.78125 -66.234375 C 15.957031 -70.085938 19.316406 -72.164062 23.859375 -72.46875 L 100.328125 -72.609375 C 100.921875 -72.609375 101.757812 -72.335938 102.84375 -71.796875 C 103.925781 -71.253906 104.46875 -69.847656 104.46875 -67.578125 L 104.46875 -55.859375 C 104.46875 -53.585938 103.925781 -52.15625 102.84375 -51.5625 C 101.757812 -50.976562 100.921875 -50.6875 100.328125 -50.6875 L 34.078125 -50.6875 C 34.078125 -50.6875 34.050781 -50.140625 34 -49.046875 C 33.957031 -47.960938 33.910156 -46.726562 33.859375 -45.34375 C 33.804688 -43.957031 33.78125 -42.722656 33.78125 -41.640625 C 33.78125 -40.554688 33.78125 -40.015625 33.78125 -40.015625 C 33.882812 -39.617188 33.9375 -39.195312 33.9375 -38.75 C 33.9375 -38.300781 33.984375 -37.878906 34.078125 -37.484375 C 34.472656 -34.722656 35.316406 -32.503906 36.609375 -30.828125 C 37.785156 -29.335938 39.265625 -28.25 41.046875 -27.5625 C 42.128906 -27.269531 43.285156 -27.023438 44.515625 -26.828125 C 45.753906 -26.628906 47.164062 -26.53125 48.75 -26.53125 Z M 24.890625 -71.28125 Z M 101.0625 -122.40625 C 101.65625 -122.40625 102.492188 -122.109375 103.578125 -121.515625 C 104.671875 -120.921875 105.21875 -119.488281 105.21875 -117.21875 L 105.21875 -105.515625 C 105.21875 -103.234375 104.671875 -101.796875 103.578125 -101.203125 C 102.492188 -100.617188 101.65625 -100.328125 101.0625 -100.328125 L 15.859375 -100.46875 C 15.265625 -100.46875 14.445312 -100.738281 13.40625 -101.28125 C 12.375 -101.820312 11.859375 -103.234375 11.859375 -105.515625 L 11.859375 -117.0625 C 11.859375 -119.4375 12.375 -120.921875 13.40625 -121.515625 C 14.445312 -122.109375 15.265625 -122.40625 15.859375 -122.40625 Z M 101.0625 -122.40625 "/></g></g></g></g></g></svg>